<svg width="13" height="7" viewBox="0 0 13 7" fill="none" xmlns="http://www.w3.org/2000/svg">
<path d="M12.0157 5.66814L6.66071 0.450662C6.56665 0.359025 6.4405 0.307739 6.30915 0.307739C6.1778 0.307739 6.05165 0.359025 5.95759 0.450662L0.600588 5.66814C0.556725 5.71082 0.521862 5.76186 0.498057 5.81823C0.474253 5.87461 0.461988 5.93518 0.461988 5.99637C0.461988 6.05756 0.474253 6.11813 0.498057 6.1745C0.521862 6.23088 0.556725 6.28191 0.600588 6.3246C0.69054 6.41242 0.811295 6.46159 0.937037 6.46159C1.06278 6.46159 1.18353 6.41242 1.27349 6.3246L6.30915 1.41824L11.3438 6.3246C11.4337 6.41212 11.5543 6.46109 11.6798 6.46109C11.8053 6.46109 11.9258 6.41212 12.0157 6.3246C12.0596 6.28191 12.0944 6.23088 12.1182 6.1745C12.142 6.11813 12.1543 6.05756 12.1543 5.99637C12.1543 5.93518 12.142 5.87461 12.1182 5.81823C12.0944 5.76186 12.0596 5.71082 12.0157 5.66814Z" fill="#2B2B2B"/>
</svg>
